<svg width="980" height="260" viewBox="0 0 980 260" fill="none" xmlns="http://www.w3.org/2000/svg">
  <defs>
    <linearGradient id="logoBg" x1="26" y1="20" x2="214" y2="228" gradientUnits="userSpaceOnUse">
      <stop stop-color="#16272A" />
      <stop offset="1" stop-color="#0A1214" />
    </linearGradient>
    <linearGradient id="logoBeam" x1="76" y1="58" x2="178" y2="178" gradientUnits="userSpaceOnUse">
      <stop stop-color="#FF8D63" />
      <stop offset="1" stop-color="#F4C06A" />
    </linearGradient>
    <linearGradient id="logoOrbit" x1="86" y1="112" x2="192" y2="202" gradientUnits="userSpaceOnUse">
      <stop stop-color="#9BE0C1" />
      <stop offset="1" stop-color="#5EA594" />
    </linearGradient>
  </defs>
  <rect x="20" y="20" width="200" height="200" rx="56" fill="url(#logoBg)"/>
  <circle cx="120" cy="120" r="66" fill="#0F1B1E" stroke="#254048" stroke-width="6"/>
  <path d="M84 82C97.3333 68.6667 113.333 62 132 62C147.333 62 162.667 66.6667 178 76" stroke="#36545B" stroke-width="6.5" stroke-linecap="round"/>
  <path d="M66 118C66 88.1766 90.1766 64 120 64H128C143.464 64 156 76.536 156 92V92C156 107.464 143.464 120 128 120H84" stroke="url(#logoBeam)" stroke-width="13" stroke-linecap="round" stroke-linejoin="round"/>
  <path d="M84 148C96 160 111 166 129 166C148.333 166 165 158.667 179 144" stroke="url(#logoOrbit)" stroke-width="10" stroke-linecap="round"/>
  <circle cx="172" cy="84" r="9" fill="#9BE0C1"/>
  <circle cx="82" cy="148" r="7" fill="#FF8D63"/>
  <circle cx="129" cy="120" r="8.5" fill="#F8F1E2"/>
  <path d="M278 92.5H401.5" stroke="#F4C06A" stroke-width="6" stroke-linecap="round" />
  <path d="M278 172.5H451.5" stroke="#9BE0C1" stroke-width="6" stroke-linecap="round" />
  <text x="274" y="150" fill="#F8F1E2" font-family="Sora, Avenir Next, Segoe UI, sans-serif" font-size="78" font-weight="700" letter-spacing="-0.06em">FeatherSpace</text>
  <text x="278" y="203" fill="#9EB1A9" font-family="Sora, Avenir Next, Segoe UI, sans-serif" font-size="28" font-weight="500" letter-spacing="0.16em">SPATIAL COMMUNICATION PLATFORM</text>
</svg>